<svg width="40" height="40" viewBox="0 0 40 40" fill="none" xmlns="http://www.w3.org/2000/svg">
<path d="M20.0007 27.9193C19.334 27.9193 18.6673 27.8693 18.034 27.7526C14.5007 27.2359 11.284 25.2026 9.25065 22.1859C7.83398 20.0526 7.08398 17.5693 7.08398 15.0026C7.08398 7.88594 12.884 2.08594 20.0007 2.08594C27.1173 2.08594 32.9173 7.88594 32.9173 15.0026C32.9173 17.5693 32.1673 20.0526 30.7507 22.1859C28.7007 25.2193 25.484 27.2359 21.9173 27.7693C21.334 27.8693 20.6673 27.9193 20.0007 27.9193ZM20.0007 4.58594C14.2507 4.58594 9.58398 9.2526 9.58398 15.0026C9.58398 17.0859 10.184 19.0859 11.3173 20.7859C12.9673 23.2193 15.5507 24.8526 18.4173 25.2693C19.484 25.4526 20.534 25.4526 21.5173 25.2693C24.434 24.8526 27.0173 23.2026 28.6673 20.7693C29.8007 19.0693 30.4007 17.0693 30.4007 14.9859C30.4173 9.25259 25.7507 4.58594 20.0007 4.58594Z" fill="#242424"/>
<path d="M10.7822 37.6493C10.5489 37.6493 10.3322 37.616 10.0989 37.566C9.01555 37.316 8.18222 36.4826 7.93222 35.3993L7.34888 32.9493C7.31555 32.7993 7.19888 32.6826 7.03222 32.6326L4.28222 31.9826C3.24888 31.7326 2.43222 30.966 2.14888 29.9493C1.86555 28.9326 2.14888 27.8326 2.89888 27.0826L9.39888 20.5826C9.66555 20.316 10.0322 20.1826 10.3989 20.216C10.7655 20.2493 11.0989 20.4493 11.3155 20.7659C12.9655 23.1993 15.5489 24.8493 18.4322 25.266C19.4989 25.4493 20.5489 25.4493 21.5322 25.266C24.4489 24.8493 27.0322 23.1993 28.6822 20.7659C28.8822 20.4493 29.2322 20.2493 29.5989 20.216C29.9655 20.1826 30.3322 20.316 30.5989 20.5826L37.0989 27.0826C37.8489 27.8326 38.1322 28.9326 37.8489 29.9493C37.5655 30.966 36.7322 31.7493 35.7155 31.9826L32.9655 32.6326C32.8155 32.6659 32.6989 32.7826 32.6489 32.9493L32.0655 35.3993C31.8155 36.4826 30.9822 37.316 29.8989 37.566C28.8155 37.8326 27.6989 37.4493 26.9989 36.5993L19.9989 28.5493L12.9989 36.616C12.4322 37.2826 11.6322 37.6493 10.7822 37.6493ZM10.1489 23.3826L4.66555 28.866C4.51555 29.016 4.53222 29.1826 4.56555 29.2826C4.58222 29.366 4.66555 29.5326 4.86555 29.5659L7.61555 30.216C8.69888 30.466 9.53222 31.2993 9.78222 32.3826L10.3655 34.8326C10.4155 35.0493 10.5822 35.116 10.6822 35.1493C10.7822 35.166 10.9489 35.1826 11.0989 35.016L17.4822 27.666C14.6489 27.116 12.0489 25.5993 10.1489 23.3826ZM22.5156 27.6493L28.8989 34.9826C29.0489 35.1659 29.2322 35.1659 29.3322 35.1326C29.4322 35.1159 29.5822 35.0327 29.6489 34.816L30.2322 32.366C30.4822 31.2827 31.3155 30.4493 32.3989 30.1993L35.1489 29.5493C35.3489 29.4993 35.4322 29.3493 35.4489 29.266C35.4822 29.1826 35.4989 28.9993 35.3489 28.8493L29.8655 23.3659C27.9489 25.5826 25.3656 27.0993 22.5156 27.6493Z" fill="#242424"/>
<path d="M23.1506 21.4818C22.7172 21.4818 22.2006 21.3651 21.5839 20.9985L20.0006 20.0485L18.4172 20.9818C16.9672 21.8484 16.0172 21.3485 15.6672 21.0985C15.3172 20.8485 14.5672 20.0985 14.9506 18.4485L15.3506 16.7318L14.0172 15.4984C13.2839 14.7651 13.0172 13.8818 13.2672 13.0818C13.5172 12.2818 14.2506 11.7151 15.2839 11.5484L17.0672 11.2485L17.9172 9.3818C18.4006 8.4318 19.1506 7.89844 20.0006 7.89844C20.8506 7.89844 21.6172 8.44848 22.0839 9.39848L23.0672 11.3651L24.7172 11.5651C25.7339 11.7318 26.4672 12.2984 26.7339 13.0984C26.9839 13.8984 26.7172 14.7818 25.9839 15.5151L24.6006 16.8985L25.0339 18.4485C25.4172 20.0985 24.6672 20.8485 24.3172 21.0985C24.1339 21.2485 23.7339 21.4818 23.1506 21.4818ZM16.0172 13.9818L17.1672 15.1318C17.7006 15.6651 17.9672 16.5651 17.8006 17.2985L17.4839 18.6318L18.8172 17.8484C19.5339 17.4318 20.5006 17.4318 21.2006 17.8484L22.5339 18.6318L22.2339 17.2985C22.0672 16.5485 22.3172 15.6651 22.8506 15.1318L24.0006 13.9818L22.5506 13.7318C21.8506 13.6151 21.1506 13.0985 20.8339 12.4651L20.0006 10.8318L19.1672 12.4985C18.8672 13.1151 18.1672 13.6485 17.4672 13.7651L16.0172 13.9818Z" fill="#242424"/>
</svg>
