<svg width="24" height="24" viewBox="0 0 24 24" fill="none" xmlns="http://www.w3.org/2000/svg">
<path d="M10.4299 18.3738C10.2799 18.3738 10.1399 18.3338 10.0099 18.2438C9.79991 18.1038 9.67991 17.8738 9.67991 17.6238C9.67991 17.4738 9.66991 17.3138 9.64991 17.1538C9.55991 16.4438 9.23991 15.8238 8.69991 15.2838C8.15991 14.7438 7.48991 14.4038 6.76991 14.3138C6.64991 14.3038 6.47991 14.2938 6.31991 14.3038C6.05991 14.3238 5.81991 14.2138 5.66991 14.0038C5.51991 13.8038 5.47991 13.5338 5.55991 13.2938C5.70991 12.8838 5.92991 12.5138 6.18991 12.2138L7.72991 10.2738C10.3799 6.96383 15.7499 2.98383 19.6799 1.40383C20.5099 1.08383 21.3999 1.27383 22.0099 1.87383C22.6399 2.50383 22.8299 3.40383 22.4999 4.22383C20.9199 8.16383 16.9499 13.5238 13.6399 16.1738L11.6699 17.7538C11.2999 18.0238 10.9999 18.1938 10.6999 18.3138C10.6199 18.3538 10.5199 18.3738 10.4299 18.3738ZM7.53991 12.9438C8.37991 13.1638 9.12991 13.6038 9.75991 14.2338C10.3899 14.8538 10.8099 15.5738 11.0199 16.3738L12.7099 15.0138C15.8499 12.5038 19.6199 7.41383 21.1099 3.67383C21.2599 3.30383 21.0499 3.04383 20.9499 2.95383C20.8799 2.88383 20.6199 2.66383 20.2199 2.81383C16.4999 4.31383 11.4099 8.08383 8.88991 11.2238L7.53991 12.9438Z" fill="white"/>
<path d="M4.07938 22.753C3.32938 22.753 2.60938 22.453 2.06938 21.913C1.44938 21.293 1.14938 20.433 1.24938 19.553L1.51938 17.093C1.77938 14.653 3.77938 12.843 6.25938 12.793C6.44938 12.783 6.69938 12.793 6.92938 12.813C8.01938 12.953 8.98938 13.443 9.76938 14.223C10.5394 14.993 10.9994 15.913 11.1394 16.943C11.1694 17.163 11.1894 17.403 11.1894 17.613C11.1894 18.933 10.6794 20.163 9.75938 21.093C8.98938 21.853 7.99938 22.323 6.87938 22.463L4.40938 22.733C4.29938 22.743 4.18938 22.753 4.07938 22.753ZM6.44938 14.303C6.40938 14.303 6.35938 14.303 6.31938 14.303C4.80938 14.333 3.20938 15.363 3.00938 17.263L2.73938 19.723C2.68938 20.143 2.83938 20.553 3.12938 20.853C3.41938 21.143 3.82938 21.293 4.23938 21.243L6.69938 20.973C7.46938 20.873 8.15938 20.553 8.67938 20.033C9.31938 19.393 9.67938 18.533 9.67938 17.613C9.67938 17.463 9.66938 17.303 9.64938 17.143C9.55938 16.433 9.23938 15.813 8.69938 15.273C8.15938 14.733 7.48938 14.393 6.76938 14.303C6.68938 14.303 6.56938 14.303 6.44938 14.303Z" fill="white"/>
<path d="M14.2398 15.2222C13.8298 15.2222 13.4898 14.8822 13.4898 14.4722C13.4898 12.2722 11.6998 10.4922 9.50977 10.4922C9.09977 10.4922 8.75977 10.1522 8.75977 9.74219C8.75977 9.33219 9.08977 8.99219 9.49977 8.99219C12.5198 8.99219 14.9798 11.4522 14.9798 14.4722C14.9898 14.8922 14.6498 15.2222 14.2398 15.2222Z" fill="white"/>
</svg>
